<?xml version="1.0" standalone="no"?><!DOCTYPE svg PUBLIC "-//W3C//DTD SVG 1.1//EN" "http://www.w3.org/Graphics/SVG/1.1/DTD/svg11.dtd"><svg t="1517909791777" class="icon" style="" viewBox="0 0 1024 1024" version="1.1" xmlns="http://www.w3.org/2000/svg" p-id="1647" xmlns:xlink="http://www.w3.org/1999/xlink" width="200" height="200"><defs><style type="text/css"></style></defs><path d="M518.4 70.4c-247.424 0-448 200.576-448 448s200.576 448 448 448 448-200.576 448-448S765.824 70.4 518.4 70.4zM754.0736 365.4272c-41.4464-14.5152-36.9792-22.976-51.6992-21.4016-14.5664 1.6768-64.2304 99.4176-111.3216 219.392-144.0384 366.3872-225.7024 275.392-253.184-179.7248-116.2112 8.4864 31.8208-70.2976 44.7744-68.928 37.184 4.096 21.6704 15.0144 27.5072 186.4576 2.9696 86.8224 33.2928 164.5312 40.3712 180.0704 7.36 16.2048 51.9168-51.8272 94.4896-167.7952 94.7968-258.24 141.8496-311.6928 204.3776-193.4336C754.304 329.344 773.4528 372.224 754.0736 365.4272z" p-id="1648" fill="#000000"></path></svg>